<svg width="100" height="100" fill="none" xmlns="http://www.w3.org/2000/svg"><circle cx="50" cy="50" r="50" fill="#000"/><path d="M3.442 52.525c0-2.2.385-4.18 1.155-5.94.807-1.76 1.852-3.245 3.135-4.455a12.692 12.692 0 014.4-2.805c1.687-.66 3.41-.99 5.17-.99 2.017 0 3.795.33 5.335.99 1.577.623 2.897 1.503 3.96 2.64 1.064 1.1 1.87 2.438 2.42 4.015.55 1.577.825 3.3.825 5.17 0 .623-.036 1.21-.11 1.76-.036.55-.091.99-.165 1.32H9.932c.22 2.42 1.174 4.29 2.86 5.61 1.687 1.283 3.759 1.925 6.215 1.925 1.394 0 2.695-.183 3.905-.55a21.523 21.523 0 003.685-1.65l2.145 3.96c-1.466.917-3.098 1.668-4.895 2.255-1.796.587-3.685.88-5.665.88-2.053 0-3.978-.312-5.775-.935-1.796-.66-3.355-1.595-4.675-2.805-1.32-1.21-2.365-2.677-3.135-4.4-.77-1.76-1.155-3.758-1.155-5.995zm20.57-2.585c0-2.09-.55-3.722-1.65-4.895-1.1-1.21-2.731-1.815-4.895-1.815-1.833 0-3.465.568-4.895 1.705-1.43 1.137-2.328 2.805-2.695 5.005h14.135zm13.509-22.77h6.38v10.01l-.22 4.73a13.43 13.43 0 013.96-2.585c1.466-.66 2.933-.99 4.4-.99 1.76 0 3.318.33 4.675.99a9.315 9.315 0 013.465 2.75c.953 1.173 1.668 2.603 2.145 4.29.513 1.687.77 3.575.77 5.665 0 2.31-.33 4.382-.99 6.215-.66 1.797-1.559 3.318-2.695 4.565a11.246 11.246 0 01-3.85 2.86c-1.43.66-2.915.99-4.455.99-1.284 0-2.622-.312-4.015-.935-1.394-.623-2.677-1.522-3.85-2.695h-.165l-.55 2.97H37.52V27.17zm6.38 31.79c.99.917 2.016 1.558 3.08 1.925 1.063.367 2.016.55 2.86.55 1.906 0 3.501-.77 4.785-2.31 1.283-1.577 1.925-3.905 1.925-6.985 0-2.713-.495-4.822-1.485-6.325-.99-1.503-2.585-2.255-4.785-2.255-1.027 0-2.072.257-3.135.77-1.064.513-2.145 1.338-3.245 2.475V58.96zm25.993-31.79h14.85v29.315c0 1.833.459 3.135 1.375 3.905.917.733 2.072 1.1 3.465 1.1 1.32 0 2.86-.348 4.62-1.045l1.485 4.675c-1.283.44-2.493.807-3.63 1.1-1.1.293-2.438.44-4.015.44-3.19 0-5.591-.917-7.205-2.75-1.613-1.833-2.42-4.418-2.42-7.755v-23.98h-8.525V27.17z" fill="#fff"/></svg>